<svg width="44" height="50" viewBox="0 0 44 50" fill="none" xmlns="http://www.w3.org/2000/svg">
<path d="M39.625 9.375V10.375H40.625H42.5781C42.6704 10.375 42.75 10.4546 42.75 10.5469V14.4531C42.75 14.5454 42.6704 14.625 42.5781 14.625H40.625H39.625V15.625V21.875V22.875H40.625H42.5781C42.6704 22.875 42.75 22.9546 42.75 23.0469V26.9531C42.75 27.0454 42.6704 27.125 42.5781 27.125H40.625H39.625V28.125V34.375V35.375H40.625H42.5781C42.6704 35.375 42.75 35.4546 42.75 35.5469V39.4531C42.75 39.5454 42.6704 39.625 42.5781 39.625H40.625H39.625V40.625V45.3125C39.625 47.3481 37.9731 49 35.9375 49H4.6875C2.65189 49 1 47.3481 1 45.3125V4.6875C1 2.65189 2.65189 1 4.6875 1H35.9375C37.9731 1 39.625 2.65189 39.625 4.6875V9.375ZM16.8088 27.2013L16.6249 27.125H16.4258H15.9375C11.9123 27.125 8.375 29.9532 8.375 33.75V35.625C8.375 37.3506 9.94842 38.5 11.5625 38.5H29.0625C30.6766 38.5 32.25 37.3506 32.25 35.625V33.75C32.25 29.9532 28.7127 27.125 24.6875 27.125H24.1992H23.9986L23.8135 27.2024C22.7396 27.6513 21.552 27.9062 20.3125 27.9062C19.0744 27.9062 17.8956 27.6519 16.8088 27.2013ZM27.5625 18.75C27.5625 14.7504 24.312 11.5 20.3125 11.5C16.313 11.5 13.0625 14.7504 13.0625 18.75C13.0625 22.7495 16.313 26 20.3125 26C24.312 26 27.5625 22.7495 27.5625 18.75Z" stroke="black" stroke-width="2"/>
</svg>
