<svg width="25" height="24" viewBox="0 0 25 24" fill="none" xmlns="http://www.w3.org/2000/svg">
<path d="M10.8456 8.27406V9.91637H9.64673V11.9236H10.8456V17.8905H13.31V11.9236H14.9632C14.9632 11.9236 15.119 10.9611 15.1939 9.90802H13.3195V8.53645C13.3195 8.33012 13.5883 8.05461 13.8547 8.05461H15.1963V5.96387H13.3706C10.7849 5.96387 10.8456 7.97351 10.8456 8.27406Z" fill="white"/>
<path d="M12.3977 21.468C14.9212 21.468 17.3413 20.4628 19.1257 18.6734C20.9101 16.8841 21.9126 14.4572 21.9126 11.9267C21.9126 9.39615 20.9101 6.96928 19.1257 5.17993C17.3413 3.39058 14.9212 2.38533 12.3977 2.38533C9.87415 2.38533 7.454 3.39058 5.66961 5.17993C3.88522 6.96928 2.88276 9.39615 2.88276 11.9267C2.88276 14.4572 3.88522 16.8841 5.66961 18.6734C7.454 20.4628 9.87415 21.468 12.3977 21.468V21.468ZM12.3977 23.8533C5.82881 23.8533 0.504028 18.5138 0.504028 11.9267C0.504028 5.33957 5.82881 0 12.3977 0C18.9665 0 24.2913 5.33957 24.2913 11.9267C24.2913 18.5138 18.9665 23.8533 12.3977 23.8533Z" fill="white"/>
</svg>
