<svg width="25" height="25" viewBox="0 0 25 25" fill="none" xmlns="http://www.w3.org/2000/svg">
<path d="M12.118 0.795166C8.8869 0.795166 8.4835 0.810074 7.21485 0.866726C5.94818 0.926359 5.08589 1.12613 4.32767 1.42132C3.54566 1.72545 2.8816 2.13394 2.22051 2.79686C1.55943 3.45978 1.15108 4.1247 0.848781 4.90987C0.554414 5.67019 0.354204 6.53488 0.295727 7.80507C0.236259 9.07725 0.224365 9.48176 0.224365 12.7218C0.224365 15.9619 0.239232 16.3664 0.295727 17.6386C0.355195 18.9078 0.554414 19.7735 0.848781 20.5338C1.1474 21.3298 1.61552 22.0509 2.22051 22.6468C2.81448 23.2539 3.53367 23.7234 4.32767 24.0224C5.08688 24.3166 5.94917 24.5183 7.21485 24.577C8.4835 24.6366 8.8869 24.6485 12.118 24.6485C15.3491 24.6485 15.7525 24.6336 17.0212 24.577C18.2868 24.5173 19.1501 24.3166 19.9083 24.0224C20.7019 23.7225 21.4209 23.2532 22.0155 22.6468C22.6211 22.0514 23.0893 21.3301 23.3872 20.5338C23.6806 19.7735 23.8818 18.9078 23.9403 17.6386C23.9997 16.3664 24.0116 15.9619 24.0116 12.7218C24.0116 9.48176 23.9968 9.07725 23.9403 7.80507C23.8808 6.53587 23.6806 5.6692 23.3872 4.90987C23.0885 4.11398 22.6204 3.39292 22.0155 2.79686C21.422 2.18924 20.7026 1.71967 19.9083 1.42132C19.1501 1.12613 18.2868 0.925366 17.0212 0.866726C15.7525 0.807093 15.3491 0.795166 12.118 0.795166ZM12.118 2.94197C15.2926 2.94197 15.6712 2.95787 16.925 3.01253C18.0846 3.0672 18.714 3.26001 19.1323 3.425C19.6893 3.64067 20.0838 3.89908 20.502 4.31552C20.9173 4.73296 21.175 5.12952 21.3901 5.68808C21.5526 6.1075 21.7469 6.73862 21.7994 7.90148C21.8559 9.15974 21.8688 9.53742 21.8688 12.7218C21.8688 15.9063 21.8539 16.2849 21.7955 17.5422C21.735 18.7051 21.5417 19.3362 21.3782 19.7556C21.1847 20.2732 20.8806 20.742 20.4872 21.1291C20.1027 21.524 19.6355 21.8282 19.1194 22.0197C18.7031 22.1827 18.0638 22.3775 16.9042 22.4301C15.6415 22.4868 15.2698 22.4997 12.0883 22.4997C8.90573 22.4997 8.53405 22.4848 7.27234 22.4262C6.11171 22.3655 5.47243 22.1717 5.05615 22.0077C4.53968 21.8161 4.07263 21.5108 3.68938 21.1142C3.29152 20.7313 2.98638 20.2622 2.79735 19.7427C2.63382 19.3252 2.44154 18.6842 2.38108 17.5213C2.33648 16.269 2.32062 15.8824 2.32062 12.7069C2.32062 9.53046 2.33648 9.14284 2.38108 7.87563C2.44154 6.71278 2.63382 6.07272 2.79735 5.65528C3.00549 5.08877 3.27211 4.70115 3.68938 4.28272C4.10466 3.86628 4.4922 3.59793 5.05615 3.39021C5.47243 3.22523 6.09784 3.03142 7.25747 2.97178C8.52117 2.92706 8.89284 2.91215 12.0734 2.91215L12.118 2.94197V2.94197ZM12.118 6.59749C11.316 6.59749 10.5218 6.7559 9.78081 7.06368C9.03982 7.37146 8.36655 7.82257 7.79943 8.39127C7.23231 8.95997 6.78244 9.63511 6.47552 10.3782C6.16859 11.1212 6.01062 11.9176 6.01062 12.7218C6.01062 13.5261 6.16859 14.3225 6.47552 15.0655C6.78244 15.8086 7.23231 16.4837 7.79943 17.0524C8.36655 17.6211 9.03982 18.0722 9.78081 18.38C10.5218 18.6878 11.316 18.8462 12.118 18.8462C13.7378 18.8462 15.2912 18.2009 16.4366 17.0524C17.5819 15.9039 18.2254 14.3461 18.2254 12.7218C18.2254 11.0976 17.5819 9.53981 16.4366 8.39127C15.2912 7.24273 13.7378 6.59749 12.118 6.59749V6.59749ZM12.118 16.6974C9.92759 16.6974 8.15346 14.9183 8.15346 12.7218C8.15346 10.5253 9.92759 8.74628 12.118 8.74628C14.3084 8.74628 16.0825 10.5253 16.0825 12.7218C16.0825 14.9183 14.3084 16.6974 12.118 16.6974ZM19.8945 6.35598C19.8807 6.72632 19.7243 7.0769 19.4581 7.33403C19.192 7.59116 18.8368 7.73482 18.4672 7.73482C18.0976 7.73482 17.7425 7.59116 17.4763 7.33403C17.2101 7.0769 17.0537 6.72632 17.04 6.35598C17.04 5.9764 17.1904 5.61237 17.458 5.34397C17.7257 5.07556 18.0887 4.92478 18.4672 4.92478C18.8457 4.92478 19.2088 5.07556 19.4764 5.34397C19.7441 5.61237 19.8945 5.9764 19.8945 6.35598V6.35598Z" fill="white"/>
</svg>
