<svg width="148" height="52" viewBox="0 0 148 52" fill="none" xmlns="http://www.w3.org/2000/svg">
<path d="M42.812 14.6721C44.8494 14.6721 46.6298 15.0759 48.1533 15.8836C49.6768 16.6912 50.8515 17.8292 51.6775 19.2976C52.5218 20.7477 52.944 22.4271 52.944 24.3361C52.944 26.2266 52.5218 27.9061 51.6775 29.3745C50.8515 30.8429 49.6676 31.9809 48.1258 32.7886C46.6023 33.5962 44.831 34 42.812 34H35.5709V14.6721H42.812ZM42.5091 29.9252C44.2895 29.9252 45.6754 29.4388 46.6665 28.466C47.6577 27.4931 48.1533 26.1165 48.1533 24.3361C48.1533 22.5556 47.6577 21.1698 46.6665 20.1786C45.6754 19.1875 44.2895 18.6919 42.5091 18.6919H40.279V29.9252H42.5091ZM60.2831 18.4441V22.3537H66.5881V25.988H60.2831V30.228H67.414V34H55.575V14.6721H67.414V18.4441H60.2831ZM69.6721 24.3085C69.6721 22.3996 70.0851 20.7018 70.9111 19.215C71.7371 17.7099 72.8843 16.5443 74.3527 15.7184C75.8394 14.874 77.5189 14.4519 79.3911 14.4519C81.6855 14.4519 83.6495 15.0576 85.2831 16.269C86.9167 17.4805 88.0088 19.1324 88.5595 21.2249H83.3834C82.9979 20.4173 82.4473 19.8024 81.7314 19.3802C81.0339 18.958 80.2355 18.747 79.3361 18.747C77.886 18.747 76.7113 19.2517 75.8119 20.2612C74.9125 21.2708 74.4628 22.6199 74.4628 24.3085C74.4628 25.9972 74.9125 27.3463 75.8119 28.3558C76.7113 29.3653 77.886 29.8701 79.3361 29.8701C80.2355 29.8701 81.0339 29.659 81.7314 29.2369C82.4473 28.8147 82.9979 28.1998 83.3834 27.3922H88.5595C88.0088 29.4847 86.9167 31.1366 85.2831 32.348C83.6495 33.5411 81.6855 34.1377 79.3911 34.1377C77.5189 34.1377 75.8394 33.7247 74.3527 32.8987C72.8843 32.0544 71.7371 30.8888 70.9111 29.4021C70.0851 27.9153 69.6721 26.2175 69.6721 24.3085ZM103.474 30.586H96.2609L95.1045 34H90.1762L97.1694 14.6721H102.621L109.614 34H104.631L103.474 30.586ZM102.263 26.9517L99.8676 19.8758L97.4998 26.9517H102.263ZM123.444 24.0883C124.564 24.3269 125.463 24.8867 126.142 25.7678C126.821 26.6304 127.161 27.6216 127.161 28.7413C127.161 30.3565 126.592 31.6414 125.454 32.5958C124.334 33.5319 122.765 34 120.746 34H111.743V14.6721H120.443C122.407 14.6721 123.939 15.1218 125.041 16.0212C126.16 16.9206 126.72 18.1412 126.72 19.6831C126.72 20.8211 126.417 21.7664 125.812 22.5189C125.224 23.2715 124.435 23.7946 123.444 24.0883ZM116.451 22.4914H119.534C120.305 22.4914 120.893 22.3262 121.296 21.9958C121.719 21.6471 121.93 21.1423 121.93 20.4815C121.93 19.8207 121.719 19.316 121.296 18.9672C120.893 18.6185 120.305 18.4441 119.534 18.4441H116.451V22.4914ZM119.92 30.2005C120.709 30.2005 121.315 30.0261 121.737 29.6774C122.177 29.3103 122.398 28.7872 122.398 28.108C122.398 27.4289 122.168 26.8966 121.709 26.5111C121.269 26.1257 120.654 25.933 119.865 25.933H116.451V30.2005H119.92ZM136.885 34.1927C135.471 34.1927 134.205 33.9633 133.085 33.5044C131.966 33.0455 131.066 32.3664 130.387 31.467C129.726 30.5676 129.378 29.4847 129.341 28.2182H134.352C134.425 28.934 134.673 29.4847 135.095 29.8701C135.517 30.2372 136.068 30.4208 136.747 30.4208C137.445 30.4208 137.995 30.2647 138.399 29.9527C138.803 29.6223 139.005 29.1726 139.005 28.6036C139.005 28.1264 138.84 27.7317 138.509 27.4197C138.197 27.1077 137.803 26.8507 137.325 26.6488C136.866 26.4469 136.206 26.2175 135.343 25.9605C134.095 25.575 133.076 25.1896 132.287 24.8041C131.498 24.4187 130.818 23.8497 130.249 23.0971C129.68 22.3445 129.396 21.3625 129.396 20.1511C129.396 18.3523 130.047 16.9482 131.351 15.9386C132.654 14.9107 134.352 14.3968 136.444 14.3968C138.573 14.3968 140.29 14.9107 141.593 15.9386C142.896 16.9482 143.594 18.3615 143.685 20.1786H138.592C138.555 19.5546 138.326 19.0682 137.903 18.7194C137.481 18.3523 136.94 18.1688 136.279 18.1688C135.71 18.1688 135.251 18.3248 134.902 18.6368C134.554 18.9305 134.379 19.3618 134.379 19.9309C134.379 20.5549 134.673 21.0413 135.26 21.3901C135.848 21.7388 136.765 22.1151 138.014 22.5189C139.262 22.9411 140.271 23.3449 141.042 23.7303C141.831 24.1158 142.511 24.6756 143.08 25.4098C143.649 26.144 143.933 27.0893 143.933 28.2457C143.933 29.347 143.649 30.3473 143.08 31.2467C142.529 32.1461 141.721 32.862 140.657 33.3943C139.592 33.9266 138.335 34.1927 136.885 34.1927ZM71.583 47.5948C72.0806 47.7008 72.4804 47.9497 72.7822 48.3412C73.084 48.7246 73.235 49.1652 73.235 49.6628C73.235 50.3807 72.9821 50.9517 72.4763 51.3759C71.9787 51.792 71.2812 52 70.3838 52H66.3824V43.4098H70.2492C71.1221 43.4098 71.8033 43.6097 72.2927 44.0094C72.7904 44.4092 73.0392 44.9517 73.0392 45.6369C73.0392 46.1427 72.9046 46.5628 72.6354 46.8973C72.3743 47.2318 72.0235 47.4643 71.583 47.5948ZM68.4749 46.8851H69.8454C70.188 46.8851 70.4491 46.8116 70.6285 46.6648C70.8162 46.5098 70.91 46.2855 70.91 45.9918C70.91 45.6981 70.8162 45.4738 70.6285 45.3188C70.4491 45.1638 70.188 45.0863 69.8454 45.0863H68.4749V46.8851ZM70.0167 50.3113C70.3675 50.3113 70.6367 50.2338 70.8243 50.0788C71.0201 49.9157 71.118 49.6832 71.118 49.3813C71.118 49.0795 71.016 48.8429 70.8121 48.6716C70.6163 48.5003 70.343 48.4146 69.9922 48.4146H68.4749V50.3113H70.0167ZM79.796 50.4826H76.59L76.0761 52H73.8857L76.9938 43.4098H79.4167L82.5248 52H80.31L79.796 50.4826ZM79.2576 48.8674L78.193 45.7226L77.1407 48.8674H79.2576ZM87.8515 52L86.0649 48.7573H85.5632V52H83.4708V43.4098H86.9827C87.6598 43.4098 88.2349 43.5281 88.7081 43.7647C89.1894 44.0013 89.5483 44.3276 89.7849 44.7436C90.0215 45.1515 90.1398 45.6084 90.1398 46.1141C90.1398 46.6852 89.9766 47.1951 89.6503 47.6437C89.3321 48.0924 88.859 48.4106 88.2308 48.5982L90.2132 52H87.8515ZM85.5632 47.2766H86.8603C87.2437 47.2766 87.5293 47.1828 87.7169 46.9952C87.9127 46.8076 88.0106 46.5424 88.0106 46.1998C88.0106 45.8735 87.9127 45.6165 87.7169 45.4289C87.5293 45.2413 87.2437 45.1474 86.8603 45.1474H85.5632V47.2766ZM96.6539 47.5948C97.1515 47.7008 97.5513 47.9497 97.8531 48.3412C98.1549 48.7246 98.3059 49.1652 98.3059 49.6628C98.3059 50.3807 98.053 50.9517 97.5472 51.3759C97.0496 51.792 96.3521 52 95.4547 52H91.4533V43.4098H95.3201C96.193 43.4098 96.8742 43.6097 97.3636 44.0094C97.8613 44.4092 98.1101 44.9517 98.1101 45.6369C98.1101 46.1427 97.9755 46.5628 97.7063 46.8973C97.4452 47.2318 97.0944 47.4643 96.6539 47.5948ZM93.5458 46.8851H94.9163C95.2589 46.8851 95.52 46.8116 95.6994 46.6648C95.8871 46.5098 95.9809 46.2855 95.9809 45.9918C95.9809 45.6981 95.8871 45.4738 95.6994 45.3188C95.52 45.1638 95.2589 45.0863 94.9163 45.0863H93.5458V46.8851ZM95.0876 50.3113C95.4384 50.3113 95.7076 50.2338 95.8952 50.0788C96.091 49.9157 96.1889 49.6832 96.1889 49.3813C96.1889 49.0795 96.0869 48.8429 95.883 48.6716C95.6872 48.5003 95.4139 48.4146 95.0631 48.4146H93.5458V50.3113H95.0876ZM101.612 45.0863V46.8239H104.414V48.4391H101.612V50.3236H104.781V52H99.5195V43.4098H104.781V45.0863H101.612ZM110.52 52L108.734 48.7573H108.232V52H106.14V43.4098H109.652C110.329 43.4098 110.904 43.5281 111.377 43.7647C111.858 44.0013 112.217 44.3276 112.454 44.7436C112.69 45.1515 112.809 45.6084 112.809 46.1141C112.809 46.6852 112.646 47.1951 112.319 47.6437C112.001 48.0924 111.528 48.4106 110.9 48.5982L112.882 52H110.52ZM108.232 47.2766H109.529C109.913 47.2766 110.198 47.1828 110.386 46.9952C110.582 46.8076 110.68 46.5424 110.68 46.1998C110.68 45.8735 110.582 45.6165 110.386 45.4289C110.198 45.2413 109.913 45.1474 109.529 45.1474H108.232V47.2766Z" fill="white"/>
<path d="M24.4106 0.200228C20.1811 0.200228 16.7521 2.58343 16.7521 5.52294C17.1146 9.11323 20.599 10.1358 24.4492 12.1461C27.3121 13.4051 26.9616 14.8084 27.5386 17.0656C24.9902 17.5142 21.9356 18.0465 20.1219 16.9748L15.7995 14.8376C15.7933 14.8341 15.7864 14.8311 15.7802 14.8276C14.4591 14.0746 12.7677 13.6212 10.926 13.6212C7.68819 13.6212 4.92417 15.0178 3.80414 16.9916C3.65666 17.388 3.56247 17.3858 3.06441 17.3848C1.37064 17.3848 -0.000793457 18.3379 -0.000793457 19.5152C-0.000793457 20.6925 1.37064 21.6457 3.06455 21.6457C4.52833 21.5324 4.00489 21.4105 4.83409 22.1699C6.23372 23.4441 8.44186 24.2667 10.926 24.2667C14.0505 24.2667 16.7359 22.966 17.927 21.1013C19.28 21.6399 20.4504 21.8424 21.9932 21.9884H56.6835C52.3851 16.5436 41.7095 17.3848 34.6896 16.9177C33.248 14.429 32.923 11.1416 29.5791 9.47131H29.5453C31.0953 8.49724 32.0691 7.08965 32.0691 5.52294C32.069 2.5834 28.64 0.200195 24.4106 0.200195V0.200228ZM24.4106 2.86157C26.5253 2.86157 28.2397 4.05317 28.2397 5.52287C28.2397 6.99264 26.5252 8.18421 24.4106 8.18421C22.2958 8.18421 20.5814 6.99261 20.5814 5.52287C20.5814 4.05317 22.2959 2.86157 24.4106 2.86157ZM10.926 16.2826C13.0407 16.2826 14.7553 17.4742 14.7553 18.9439C14.7553 20.4136 13.0407 21.6052 10.926 21.6052C8.81134 21.6052 7.09683 20.4136 7.09683 18.9439C7.09683 17.4742 8.81139 16.2826 10.926 16.2826ZM31.368 17.3981C32.5696 17.3981 33.5437 18.0752 33.5437 18.9103C33.5437 19.7454 32.5696 20.4224 31.368 20.4224C30.1664 20.4224 29.1922 19.7455 29.1922 18.9103C29.1923 18.0752 30.1664 17.3981 31.368 17.3981ZM31.5324 24.6866C34.4843 28.8332 36.5271 33.9222 43.9774 34.4483L38.7267 24.6866H31.5324V24.6866ZM8.49897 27.6336V30.0128H15.9592V27.6336H8.49897ZM21.9254 27.6336V30.0128H30.1593L28.5832 27.6336H21.9254ZM45.3312 27.6336L46.3465 30.0128H53.8068V27.6336H45.3312Z" fill="white"/>
</svg>
