<svg width="50" height="50" viewBox="0 0 50 50" fill="none" xmlns="http://www.w3.org/2000/svg">
<path d="M38.5139 49.2222C38.0468 49.2209 37.5812 49.1697 37.125 49.0695C28.4398 47.2728 20.4384 43.0603 14.0417 36.9167C7.78149 30.7596 3.43972 22.9203 1.54167 14.3472C1.31787 13.2788 1.3728 12.1707 1.70118 11.1296C2.02956 10.0885 2.62034 9.14949 3.41667 8.4028L8.97223 3.05558C9.25599 2.78723 9.59315 2.58173 9.9617 2.4525C10.3302 2.32327 10.7219 2.27321 11.1111 2.30558C11.5147 2.34768 11.9041 2.47768 12.252 2.68644C12.6 2.8952 12.8979 3.17764 13.125 3.51391L20.0695 13.7778C20.3299 14.1761 20.4556 14.6474 20.4281 15.1224C20.4006 15.5975 20.2213 16.0512 19.9167 16.4167L16.4306 20.5834C17.819 23.6562 19.7852 26.4335 22.2222 28.7639C24.6435 31.1789 27.5053 33.1072 30.6528 34.4445L34.9722 31.0139C35.335 30.7272 35.7765 30.5577 36.2379 30.5279C36.6994 30.4982 37.1589 30.6095 37.5556 30.8472L48.0417 37.625C48.4015 37.8399 48.7081 38.1334 48.9384 38.4836C49.1687 38.8337 49.3168 39.2314 49.3716 39.647C49.4264 40.0625 49.3864 40.485 49.2547 40.8829C49.123 41.2808 48.903 41.6437 48.6111 41.9445L43.1945 47.3056C42.5792 47.9179 41.8489 48.4024 41.0456 48.7313C40.2423 49.0603 39.3819 49.2271 38.5139 49.2222ZM10.8889 5.05558L5.33334 10.4028C4.88536 10.8202 4.55374 11.3471 4.3711 11.9315C4.18846 12.516 4.16108 13.1379 4.29167 13.7361C6.05656 21.7808 10.1135 29.1421 15.9722 34.9306C21.9919 40.7105 29.5217 44.6728 37.6945 46.3611C38.3131 46.4905 38.9541 46.4643 39.5601 46.2849C40.1661 46.1055 40.7181 45.7786 41.1667 45.3334L46.5833 39.9723L36.4583 33.4306L31.8195 37.125C31.6419 37.2656 31.4326 37.3606 31.2099 37.4017C30.9872 37.4429 30.7578 37.429 30.5417 37.3611C26.6899 35.942 23.1993 33.6892 20.3195 30.7639C17.3408 27.9823 15.0286 24.5639 13.5556 20.7639C13.4932 20.5339 13.4912 20.2917 13.5496 20.0606C13.6079 19.8295 13.7248 19.6173 13.8889 19.4445L17.6389 14.9584L10.8889 5.05558Z" fill="black"/>
</svg>
