<svg width="25" height="25" viewBox="0 0 25 25" fill="none" xmlns="http://www.w3.org/2000/svg">
<path d="M17.0911 10.2412C17.5642 9.94831 17.8801 9.55075 18.0334 9.0432C17.6 9.2785 17.1348 9.44946 16.6524 9.55075C16.4552 9.33317 16.2136 9.16059 15.9442 9.04468C15.6747 8.92877 15.3835 8.87223 15.0904 8.87888C14.4772 8.87888 13.9605 9.09489 13.5376 9.51365C13.3338 9.71297 13.1727 9.95185 13.0641 10.2157C12.9555 10.4795 12.9017 10.7628 12.9059 11.0482C12.9059 11.2298 12.9284 11.3928 12.9746 11.5306C11.1668 11.467 9.67215 10.7169 8.49336 9.26981C8.30001 9.59936 8.19655 9.97412 8.19338 10.3565C8.19338 11.1224 8.51583 11.7294 9.15809 12.1759C8.82061 12.1531 8.4918 12.0587 8.19338 11.899C8.19338 12.4463 8.35328 12.9035 8.67573 13.3063C8.99686 13.7039 9.41182 13.9583 9.91664 14.0657C9.72875 14.1134 9.53559 14.137 9.34178 14.1359C9.2095 14.1435 9.07695 14.1269 8.95061 14.0869C9.08805 14.5335 9.34178 14.8939 9.70916 15.1709C10.0752 15.4492 10.4981 15.5949 10.9738 15.6082C10.2102 16.217 9.26001 16.5419 8.28456 16.5279C8.03612 16.5279 7.86168 16.5252 7.75596 16.5053C8.74664 17.1515 9.90576 17.4895 11.0875 17.4767C12.3443 17.4767 13.4557 17.1573 14.4204 16.5186C15.3851 15.8838 16.1 15.1006 16.5572 14.177C17.01 13.2845 17.2459 12.2973 17.2458 11.296V11.0191C17.6898 10.6838 18.0506 10.3061 18.3268 9.88735C17.9336 10.0632 17.5176 10.1823 17.0911 10.2412ZM12.7579 24.4432C9.46732 24.4432 6.63267 23.2638 4.33191 20.9367C2.03116 18.6163 0.864258 15.7831 0.864258 12.5165C0.864258 9.21945 2.03248 6.37561 4.33588 4.06846C6.63531 1.76131 9.46864 0.589844 12.7579 0.589844C16.0167 0.589844 18.8421 1.75998 21.1548 4.06713C23.4754 6.37561 24.6515 9.21945 24.6515 12.5165C24.6515 15.7831 23.4767 18.6177 21.1574 20.9407C18.8435 23.2638 16.0181 24.4432 12.7579 24.4432ZM12.7579 3.24022C10.1598 3.24022 8.0163 4.12411 6.20582 5.94359C4.38874 7.76175 3.50729 9.9112 3.50729 12.5165C3.50729 15.0927 4.39006 17.2368 6.20714 19.0696C8.02026 20.9023 10.1624 21.7928 12.7579 21.7928C15.3256 21.7928 17.4625 20.901 19.2888 19.0669C21.1191 17.2329 22.0085 15.0887 22.0085 12.5165C22.0085 9.91518 21.1204 7.76573 19.2928 5.94757C17.4651 4.12544 15.3282 3.24022 12.7579 3.24022Z" fill="white"/>
</svg>
